<svg width="35" height="36" viewBox="0 0 35 36" fill="none" xmlns="http://www.w3.org/2000/svg">
<path d="M17.5 35.31C15.12 35.31 12.88 34.862 10.78 33.966C8.68 33.07 6.832 31.838 5.236 30.27C3.668 28.674 2.436 26.826 1.54 24.726C0.644 22.626 0.196 20.386 0.196 18.006C0.196 15.598 0.644 13.358 1.54 11.286C2.436 9.186 3.668 7.352 5.236 5.784C6.832 4.188 8.68 2.942 10.78 2.046C12.88 1.15 15.12 0.701998 17.5 0.701998C19.908 0.701998 22.148 1.15 24.22 2.046C26.32 2.942 28.154 4.188 29.722 5.784C31.318 7.352 32.564 9.186 33.46 11.286C34.356 13.358 34.804 15.598 34.804 18.006C34.804 20.386 34.356 22.626 33.46 24.726C32.564 26.826 31.318 28.674 29.722 30.27C28.154 31.838 26.32 33.07 24.22 33.966C22.148 34.862 19.908 35.31 17.5 35.31ZM17.5 32.958C19.572 32.958 21.504 32.58 23.296 31.824C25.116 31.04 26.712 29.962 28.084 28.59C29.456 27.218 30.52 25.636 31.276 23.844C32.06 22.024 32.452 20.078 32.452 18.006C32.452 15.934 32.06 14.002 31.276 12.21C30.52 10.39 29.456 8.794 28.084 7.422C26.712 6.05 25.116 4.986 23.296 4.23C21.504 3.446 19.572 3.054 17.5 3.054C15.428 3.054 13.482 3.446 11.662 4.23C9.87 4.986 8.288 6.05 6.916 7.422C5.544 8.794 4.466 10.39 3.682 12.21C2.926 14.002 2.548 15.934 2.548 18.006C2.548 20.078 2.926 22.024 3.682 23.844C4.466 25.636 5.544 27.218 6.916 28.59C8.288 29.962 9.87 31.04 11.662 31.824C13.482 32.58 15.428 32.958 17.5 32.958ZM17.5 10.908C16.38 10.908 15.82 10.362 15.82 9.27C15.82 8.178 16.38 7.632 17.5 7.632C17.948 7.632 18.326 7.772 18.634 8.052C18.97 8.304 19.138 8.71 19.138 9.27C19.138 9.83 18.97 10.25 18.634 10.53C18.326 10.782 17.948 10.908 17.5 10.908ZM16.114 26.364V12.84H18.886V26.364H16.114Z" fill="#FBCA11"/>
</svg>
